# xmcd
#
# Track frame offsets:
#        150
#        16960
#        34117
#        49547
#        66842
#        82320
#        98075
#        114707
#        131750
#        147892
#        164570
#        181392
#        199700
#        220497
#        238347
#        252927
#        275162
#        302260
#
# Disc length: 4440 seconds
#
# Revision: 2
# Processed by: cddbd v1.5.1PL0 Copyright (c) Steve Scherf et al.
# Submitted via: ExactAudioCopy v0.95a5
#
DISCID=0f115612
DTITLE=Blue - Best of Blue
DYEAR=2004
DGENRE=Hip-Hop
TTITLE0=ALL RISE
TTITLE1=TOO CLOSE
TTITLE2=IF YOU COME BACK
TTITLE3=FLY BY II
TTITLE4=ONE LOVE
TTITLE5=SORRY SEEMS TO BE THE HARDEST WORD FEAT. ELTON JOHN
TTITLE6=U MAKE ME WANNA
TTITLE7=GUILTY
TTITLE8=SIGNED,SEALED,DELIVERED I'M YOURS FEAT.STEVIE WONDER and ANGIE S
TTITLE8=TONE
TTITLE9=BREATHE EASY
TTITLE10=BUBBLIN' FEAT. L.A.D.E
TTITLE11=CURTAIN FALLS
TTITLE12=GET DOWN ON IT FEAT.KOOL and THE GANG AND LIL' KIM
TTITLE13=LOVE AT FIRST SIGHT
TTITLE14=BEST IN ME(2004)
TTITLE15=THE GIFT
TTITLE16=IT'S ALRIGHT
TTITLE17=Data Track
EXTD=YEAR: 2004
EXTT0=
EXTT1=
EXTT2=
EXTT3=
EXTT4=
EXTT5=
EXTT6=
EXTT7=
EXTT8=
EXTT9=
EXTT10=
EXTT11=
EXTT12=
EXTT13=
EXTT14=
EXTT15=
EXTT16=
EXTT17=
PLAYORDER=
